<svg xmlns="http://www.w3.org/2000/svg" width="80.255" height="83.249" viewBox="0 0 80.255 83.249">
  <g id="Union_1" data-name="Union 1" transform="translate(-0.497)" fill="#f5b70a">
    <path d="M 28.23210716247559 82.23661041259766 L 43.27377319335938 47.8216438293457 L 79.30568695068359 58.42078399658203 L 28.23210716247559 82.23661041259766 Z M 15.52436637878418 54.00209426879883 L 1.474834322929382 44.63274765014648 L 16.42691421508789 36.78261947631836 L 15.52436637878418 54.00209426879883 Z M 80.20978546142578 53.67512512207031 L 65.94408416748047 40.37271499633789 L 79.24732208251953 26.10617828369141 L 80.20978546142578 53.67512512207031 Z M 52.06524276733398 19.49980545043945 L 27.90783309936523 19.49980545043945 L 39.98611831665039 0.9174396395683289 L 52.06524276733398 19.49980545043945 Z" stroke="none"/>
    <path d="M 29.22029495239258 81.22412872314453 L 77.89487457275391 58.5269660949707 L 43.5554313659668 48.42568206787109 L 29.22029495239258 81.22412872314453 M 15.07101821899414 53.09878921508789 L 15.88161563873291 37.63362503051758 L 2.452847242355347 44.68398666381836 L 15.07101821899414 53.09878921508789 M 79.66798400878906 52.48626708984375 L 78.78974914550781 27.33003997802734 L 66.6507568359375 40.34802627563477 L 79.66798400878906 52.48626708984375 M 51.14386367797852 18.99980545043945 L 39.98612594604492 1.834887981414795 L 28.82916259765625 18.99980545043945 L 51.14386367797852 18.99980545043945 M 27.2439022064209 83.24910736083984 L 42.99210357666016 47.21760559082031 L 80.71649932861328 58.31460571289063 L 27.2439022064209 83.24910736083984 Z M 15.97770309448242 54.9054069519043 L 0.4968027174472809 44.58150482177734 L 16.97220230102539 35.93160629272461 L 15.97770309448242 54.9054069519043 Z M 80.75160217285156 54.86400604248047 L 65.23740386962891 40.39740371704102 L 79.70490264892578 24.88230514526367 L 80.75160217285156 54.86400604248047 Z M 52.98660278320313 19.99980545043945 L 26.98650360107422 19.99980545043945 L 39.98610305786133 5.421278274297947e-06 L 52.98660278320313 19.99980545043945 Z" stroke="none" fill="#707070"/>
  </g>
</svg>
